<?xml version="1.0" encoding="utf-8" ?>
<svg xmlns="http://www.w3.org/2000/svg" xmlns:xlink="http://www.w3.org/1999/xlink" width="35" height="40">
	<defs>
		<clipPath id="clip_0">
			<rect x="-960" y="-3285" width="1440" height="5513" clip-rule="evenodd"/>
		</clipPath>
	</defs>
	<g clip-path="url(#clip_0)">
		<path fill="rgb(227,115,81)" stroke="none" d="M0.862179 0L0 1.8221L3.49798 3.47846L3.49798 23.9281L0.237379 23.9281L0.237379 25.048L9.92738 25.048L9.92738 30.6745L19.8469 30.6745L19.8469 35.7869L29.7665 35.7869L29.7665 40L35 40L35 38.8801L30.8862 38.8801L30.8862 34.667L29.4776 34.667L29.4776 15.783L32.306 17.1224L33.167 15.3003L0.862179 0ZM5.51347 8.23137L5.51347 4.43374L27.461 14.8288L27.461 18.6253L5.51347 8.23137ZM5.51347 9.47L5.51347 11.917L27.461 22.3109L27.461 19.8639L5.51347 9.47ZM5.51347 15.6284L5.51347 13.1556L27.461 23.5496L27.461 26.0235L5.51347 15.6284ZM27.461 27.2621L5.51347 16.8682L5.51347 23.9281L11.046 23.9281L11.046 29.5546L20.9666 29.5546L20.9666 34.667L27.461 34.667L27.461 27.2621Z" fill-rule="evenodd"/>
	</g>

</svg>