<?xml version="1.0" encoding="utf-8" ?>
<svg xmlns="http://www.w3.org/2000/svg" xmlns:xlink="http://www.w3.org/1999/xlink" width="46" height="31">
	<defs>
		<clipPath id="clip_0">
			<rect x="-559" y="-3365" width="1440" height="5513" clip-rule="evenodd"/>
		</clipPath>
	</defs>
	<g clip-path="url(#clip_0)">
		<path fill="rgb(227,115,81)" stroke="none" transform="translate(3.51398 0)" d="M0 2L38.641 2L38.641 0L0 0L0 2Z"/>
	</g>
	<defs>
		<clipPath id="clip_1">
			<rect x="-559" y="-3365" width="1440" height="5513" clip-rule="evenodd"/>
		</clipPath>
	</defs>
	<g clip-path="url(#clip_1)">
		<path fill="rgb(227,115,81)" stroke="none" transform="translate(6.88501 1)" d="M0 25.5L1.5 25.5L1.5 0L0 0L0 25.5Z"/>
	</g>
	<defs>
		<clipPath id="clip_2">
			<rect x="-559" y="-3365" width="1440" height="5513" clip-rule="evenodd"/>
		</clipPath>
	</defs>
	<g clip-path="url(#clip_2)">
		<path fill="rgb(227,115,81)" stroke="none" transform="translate(37.162 1)" d="M0 25.5L1.5 25.5L1.5 0L0 0L0 25.5Z"/>
	</g>
	<defs>
		<clipPath id="clip_3">
			<rect x="-559" y="-3365" width="1440" height="5513" clip-rule="evenodd"/>
		</clipPath>
	</defs>
	<g clip-path="url(#clip_3)">
		<path fill="rgb(227,115,81)" stroke="none" transform="translate(7.75598 7.5)" d="M0 1L2.523 1L2.523 0L0 0L0 1Z"/>
	</g>
	<defs>
		<clipPath id="clip_4">
			<rect x="-559" y="-3365" width="1440" height="5513" clip-rule="evenodd"/>
		</clipPath>
	</defs>
	<g clip-path="url(#clip_4)">
		<path fill="rgb(227,115,81)" stroke="none" transform="translate(7.75598 19.2148)" d="M0 1L2.523 1L2.523 0L0 0L0 1Z"/>
	</g>
	<defs>
		<clipPath id="clip_5">
			<rect x="-559" y="-3365" width="1440" height="5513" clip-rule="evenodd"/>
		</clipPath>
	</defs>
	<g clip-path="url(#clip_5)">
		<path fill="rgb(227,115,81)" stroke="none" transform="translate(35.389 7.5)" d="M0 1L2.523 1L2.523 0L0 0L0 1Z"/>
	</g>
	<defs>
		<clipPath id="clip_6">
			<rect x="-559" y="-3365" width="1440" height="5513" clip-rule="evenodd"/>
		</clipPath>
	</defs>
	<g clip-path="url(#clip_6)">
		<path fill="rgb(227,115,81)" stroke="none" transform="translate(35.389 19.2148)" d="M0 1L2.523 1L2.523 0L0 0L0 1Z"/>
	</g>
	<defs>
		<clipPath id="clip_7">
			<rect x="-559" y="-3365" width="1440" height="5513" clip-rule="evenodd"/>
		</clipPath>
	</defs>
	<g clip-path="url(#clip_7)">
		<path fill="rgb(227,115,81)" stroke="none" transform="translate(0 26)" d="M0 1.001L45.668 1.001L45.668 0L0 0L0 1.001Z"/>
	</g>
	<defs>
		<clipPath id="clip_8">
			<rect x="-559" y="-3365" width="1440" height="5513" clip-rule="evenodd"/>
		</clipPath>
	</defs>
	<g clip-path="url(#clip_8)">
		<path fill="rgb(227,115,81)" stroke="none" transform="translate(1.87292 28.3586)" d="M0 1.996L0.565 2.561L2.561 0.565L1.996 0L0 1.996Z"/>
	</g>
	<defs>
		<clipPath id="clip_9">
			<rect x="-559" y="-3365" width="1440" height="5513" clip-rule="evenodd"/>
		</clipPath>
	</defs>
	<g clip-path="url(#clip_9)">
		<path fill="rgb(227,115,81)" stroke="none" transform="translate(7.57172 28.3586)" d="M0 1.996L0.565 2.561L2.561 0.565L1.995 0L0 1.996Z"/>
	</g>
	<defs>
		<clipPath id="clip_10">
			<rect x="-559" y="-3365" width="1440" height="5513" clip-rule="evenodd"/>
		</clipPath>
	</defs>
	<g clip-path="url(#clip_10)">
		<path fill="rgb(227,115,81)" stroke="none" transform="translate(13.2696 28.3586)" d="M0 1.996L0.565 2.561L2.561 0.565L1.996 0L0 1.996Z"/>
	</g>
	<defs>
		<clipPath id="clip_11">
			<rect x="-559" y="-3365" width="1440" height="5513" clip-rule="evenodd"/>
		</clipPath>
	</defs>
	<g clip-path="url(#clip_11)">
		<path fill="rgb(227,115,81)" stroke="none" transform="translate(18.9675 28.3586)" d="M0 1.996L0.566 2.561L2.561 0.565L1.996 0L0 1.996Z"/>
	</g>
	<defs>
		<clipPath id="clip_12">
			<rect x="-559" y="-3365" width="1440" height="5513" clip-rule="evenodd"/>
		</clipPath>
	</defs>
	<g clip-path="url(#clip_12)">
		<path fill="rgb(227,115,81)" stroke="none" transform="translate(24.6663 28.3586)" d="M0 1.996L0.565 2.561L2.561 0.565L1.996 0L0 1.996Z"/>
	</g>
	<defs>
		<clipPath id="clip_13">
			<rect x="-559" y="-3365" width="1440" height="5513" clip-rule="evenodd"/>
		</clipPath>
	</defs>
	<g clip-path="url(#clip_13)">
		<path fill="rgb(227,115,81)" stroke="none" transform="translate(30.3651 28.3586)" d="M0 1.996L0.565 2.561L2.561 0.565L1.995 0L0 1.996Z"/>
	</g>
	<defs>
		<clipPath id="clip_14">
			<rect x="-559" y="-3365" width="1440" height="5513" clip-rule="evenodd"/>
		</clipPath>
	</defs>
	<g clip-path="url(#clip_14)">
		<path fill="rgb(227,115,81)" stroke="none" transform="translate(36.063 28.3586)" d="M0 1.996L0.565 2.561L2.561 0.565L1.996 0L0 1.996Z"/>
	</g>
	<defs>
		<clipPath id="clip_15">
			<rect x="-559" y="-3365" width="1440" height="5513" clip-rule="evenodd"/>
		</clipPath>
	</defs>
	<g clip-path="url(#clip_15)">
		<path fill="rgb(227,115,81)" stroke="none" transform="translate(41.7609 28.3586)" d="M0 1.996L0.566 2.561L2.562 0.565L1.996 0L0 1.996Z"/>
	</g>
	<defs>
		<clipPath id="clip_16">
			<rect x="-559" y="-3365" width="1440" height="5513" clip-rule="evenodd"/>
		</clipPath>
	</defs>
	<g clip-path="url(#clip_16)">
		<path fill="rgb(227,115,81)" stroke="none" transform="translate(8.85901 4.62891)" d="M27.793 18.838L0 18.838L0 0L27.793 0L27.793 18.838ZM26.792 17.838L0.999 17.838L0.999 1L26.792 1L26.792 17.838Z" fill-rule="evenodd"/>
	</g>

</svg>