<?xml version="1.0" encoding="utf-8" ?>
<svg xmlns="http://www.w3.org/2000/svg" xmlns:xlink="http://www.w3.org/1999/xlink" width="36" height="19">
	<defs>
		<clipPath id="clip_0">
			<rect x="-955" y="-3370" width="1440" height="5513" clip-rule="evenodd"/>
		</clipPath>
	</defs>
	<g clip-path="url(#clip_0)">
		<path fill="rgb(227,115,81)" stroke="none" d="M3.6141 0.0717461L33.7536 8.93074C35.0512 9.21453 36 10.3731 36 11.7316L36 16.1114C36 16.9939 35.5941 17.817 34.8863 18.368C34.3554 18.7825 33.7086 19 33.0447 19C32.8248 19 32.6038 18.9766 32.3859 18.9288L32.3239 18.9132L2.24644 10.0698C0.948763 9.78602 0 8.62745 0 7.26895L0 2.88919C0 2.00563 0.405899 1.18351 1.11272 0.632504C1.81855 0.0814984 2.72932 -0.122325 3.6141 0.0717461ZM33.7626 16.9969C34.0405 16.7804 34.1994 16.4576 34.1994 16.1114L34.1994 11.7316C34.1994 11.1991 33.8275 10.7447 33.2957 10.6267L29.5026 9.51198L29.5026 10.5408C29.9215 10.6988 30.2214 11.0899 30.2214 11.5541C30.2214 12.1568 29.7206 12.6464 29.1007 12.6464C28.4829 12.6464 27.982 12.1568 27.982 11.5541C27.982 11.0889 28.2819 10.6979 28.7018 10.5408L28.7018 9.27695L6.46238 2.74095L6.46238 3.66937C6.88228 3.82736 7.1822 4.21843 7.1822 4.68361C7.1822 5.2863 6.68133 5.77587 6.06248 5.77587C5.44364 5.77587 4.94276 5.2863 4.94276 4.68361C4.94276 4.21843 5.24269 3.82736 5.66258 3.66937L5.66258 2.50495L3.15521 1.76865C2.87228 1.70623 2.51337 1.78815 2.23644 2.00368C1.95851 2.22018 1.79955 2.54298 1.79955 2.88919L1.79955 7.26895C1.79955 7.80143 2.17146 8.25588 2.70432 8.37291L32.8088 17.2222C33.1457 17.2894 33.4936 17.2075 33.7626 16.9969Z" fill-rule="evenodd"/>
	</g>

</svg>