<?xml version="1.0" encoding="utf-8" ?>
<svg xmlns="http://www.w3.org/2000/svg" xmlns:xlink="http://www.w3.org/1999/xlink" width="43" height="47">
	<defs>
		<clipPath id="clip_0">
			<rect x="-250" y="-2670" width="1440" height="5513" clip-rule="evenodd"/>
		</clipPath>
	</defs>
	<g clip-path="url(#clip_0)">
		<path fill="rgb(227,115,81)" stroke="none" d="M38.0009 31L26.9991 31C26.4468 31 26 30.5532 26 30.0007C26 29.4483 26.4468 29 26.9991 29L38.0009 29C38.5517 29 39 29.4484 39 30.0007C39 30.5531 38.5517 31 38.0009 31ZM38.0009 35L26.9991 35C26.4468 35 26 34.5516 26 33.9992C26 33.4469 26.4468 33 26.9991 33L38.0009 33C38.5517 33 39 33.4468 39 33.9992C39 34.5517 38.5517 35 38.0009 35ZM26.999 41.0005L27.998 41.0005L27.998 42.001C27.998 42.5533 28.4462 43 29 43C29.5508 43 29.999 42.5532 29.999 42.001L29.999 41.0005L30.998 41.0005C31.5517 41.0005 32 40.5523 32 40C32 39.4477 31.5517 39.001 30.998 39.001L29.999 39.001L29.999 38.0005C29.999 37.4482 29.5508 37 29 37C28.4463 37 27.998 37.4482 27.998 38.0005L27.998 39.001L26.999 39.001C26.4467 39.001 26 39.4478 26 40C26 40.5522 26.4468 41.0005 26.999 41.0005ZM33.999 39L38.001 39C38.5518 39 39 39.4468 39 39.9992C39 40.5517 38.5518 41 38.001 41L33.999 41C33.4482 41 33 40.5516 33 39.9992C33 39.4469 33.4482 39 33.999 39Z" fill-rule="evenodd"/>
	</g>
	<defs>
		<clipPath id="clip_1">
			<rect x="-250" y="-2670" width="1440" height="5513" clip-rule="evenodd"/>
		</clipPath>
	</defs>
	<g clip-path="url(#clip_1)">
		<path fill="rgb(0,0,0)" stroke="none" d="M14.6594 13.7081L42.0237 13.7081C42.5634 13.7081 43 14.147 43 14.6876L43 45.0421C43 45.5828 42.5634 46.0203 42.0237 46.0203L41.0473 46.0203C41.0473 46.5611 40.6092 47 40.0682 47C39.5299 47 39.0918 46.5611 39.0918 46.0203L17.5914 46.0203C17.5914 46.5611 17.1533 47 16.6136 47C16.0738 47 15.6365 46.5611 15.6365 46.0203L14.6594 46.0203C14.1198 46.0203 13.6817 45.5829 13.6817 45.0421L13.6817 37.083C10.7398 36.9255 8.334 36.5913 6.50659 35.9257C3.66418 34.8902 2.2126 33.0585 1.98638 30.197C0.832484 29.8026 0 28.7053 0 27.4173L0 12.7291C0 12.1884 0.437315 11.7502 0.977064 11.7502L1.95404 11.7502L1.95404 6.8542C1.95404 6.56798 2.07938 6.2969 2.29552 6.11046L9.13634 0.235419C9.54654 -0.115982 10.1635 -0.0686148 10.515 0.341536C10.8657 0.752514 10.8185 1.37068 10.4091 1.72281L3.9089 7.30447L3.9089 11.7501L4.88606 11.7501C5.42581 11.7501 5.86385 12.1883 5.86385 12.7291L5.86385 13.708C6.4036 13.708 6.84092 14.1469 6.84092 14.6876L6.84092 16.6455C6.84092 17.1863 6.4036 17.6252 5.86385 17.6252L5.86385 27.4173C5.86385 28.6795 5.06426 29.7581 3.94619 30.1727C4.13869 32.1736 5.11511 33.3354 7.17516 34.0856C8.64607 34.622 10.6689 34.9519 13.6817 35.1183L13.6817 14.6877C13.6817 14.147 14.1197 13.7081 14.6594 13.7081ZM3.9089 25.458L1.95413 25.458L1.95413 13.7081L3.9089 13.7081L3.9089 25.458ZM15.6365 25.4581L41.0473 25.4581L41.0473 15.6667L15.6365 15.6667L15.6365 25.4581ZM15.6365 44.0625L41.0473 44.0625L41.0473 27.4172L15.6366 27.4172L15.6366 35.1985C16.3037 35.2186 17.0109 35.2329 17.7625 35.2416C18.1683 34.1056 19.2528 33.2923 20.5233 33.2923C22.1396 33.2923 23.456 34.6091 23.456 36.2299C23.456 37.8491 22.1396 39.1672 20.5233 39.1672C19.2456 39.1672 18.1576 38.3439 17.7568 37.1992C17.0259 37.1921 16.3186 37.1806 15.6365 37.1605L15.6365 44.0625ZM1.95413 27.4173C1.95413 27.9566 2.39291 28.3955 2.93183 28.3955C3.47085 28.3955 3.9089 27.9566 3.9089 27.4173L1.95413 27.4173ZM20.0344 35.3821C20.179 35.2989 20.3451 35.2501 20.5233 35.2501C21.0623 35.2501 21.5004 35.689 21.5004 36.2298C21.5004 36.7691 21.0623 37.2078 20.5233 37.2078C20.3451 37.2078 20.179 37.159 20.0344 37.0758C20.3265 36.9067 20.5233 36.5912 20.5233 36.2297C20.5233 35.867 20.3264 35.5514 20.0344 35.3821Z" fill-rule="evenodd"/>
	</g>
	<defs>
		<clipPath id="clip_2">
			<rect x="-250" y="-2670" width="1440" height="5513" clip-rule="evenodd"/>
		</clipPath>
	</defs>
	<g clip-path="url(#clip_2)">
		<path fill="rgb(0,0,0)" stroke="none" transform="translate(18 18)" d="M6 3C6 4.65384 4.65326 6 2.99962 6C1.34533 6 0 4.65384 0 3C0 1.3455 1.34533 0 2.99962 0C4.65326 0 6 1.3455 6 3ZM3.99925 3.00009C3.99925 2.44856 3.55109 1.99959 2.99962 1.99959C2.44816 1.99959 1.99925 2.44856 1.99925 3.00009C1.99925 3.55088 2.44816 3.99984 2.99962 3.99984C3.55109 3.99984 3.99925 3.55088 3.99925 3.00009Z" fill-rule="evenodd"/>
	</g>
	<defs>
		<clipPath id="clip_3">
			<rect x="-250" y="-2670" width="1440" height="5513" clip-rule="evenodd"/>
		</clipPath>
	</defs>
	<g clip-path="url(#clip_3)">
		<path fill="rgb(0,0,0)" stroke="none" transform="translate(25 18)" d="M6 3C6 4.65384 4.65525 6 3 6C1.34766 6 0 4.65384 0 3C0 1.3455 1.34766 0 3 0C4.65525 0 6 1.3455 6 3ZM4.002 3.00009C4.002 2.44856 3.55228 1.99959 3 1.99959C2.44922 1.99959 2.001 2.44856 2.001 3.00009C2.001 3.55088 2.44922 3.99984 3 3.99984C3.55228 3.99984 4.002 3.55088 4.002 3.00009Z" fill-rule="evenodd"/>
	</g>
	<defs>
		<clipPath id="clip_4">
			<rect x="-250" y="-2670" width="1440" height="5513" clip-rule="evenodd"/>
		</clipPath>
	</defs>
	<g clip-path="url(#clip_4)">
		<path fill="rgb(0,0,0)" stroke="none" transform="translate(33 18)" d="M6 3C6 4.65384 4.65525 6 3 6C1.34616 6 0 4.65384 0 3C0 1.3455 1.34616 0 3 0C4.65525 0 6 1.3455 6 3ZM3.999 3.00009C3.999 2.44856 3.55078 1.99959 3 1.99959C2.44922 1.99959 2.001 2.44856 2.001 3.00009C2.001 3.55088 2.44922 3.99984 3 3.99984C3.55078 3.99984 3.999 3.55088 3.999 3.00009Z" fill-rule="evenodd"/>
	</g>

</svg>