<?xml version="1.0" encoding="utf-8" ?>
<svg xmlns="http://www.w3.org/2000/svg" xmlns:xlink="http://www.w3.org/1999/xlink" width="45" height="45">
	<defs>
		<clipPath id="clip_0">
			<rect x="-544" y="-2670" width="1440" height="5513" clip-rule="evenodd"/>
		</clipPath>
	</defs>
	<g clip-path="url(#clip_0)">
		<path fill="rgb(227,115,81)" stroke="none" d="M44.645 13.6126L22.8952 0.112601C22.6531 -0.0375336 22.3469 -0.0375336 22.1048 0.112601L0.354973 13.6126C0.0701077 13.7891 -0.063057 14.1332 0.0287587 14.4555C0.120574 14.7779 0.415083 15.0001 0.750219 15.0001L2.2502 15.0001L2.2502 44.25C2.2502 44.6642 2.58599 45 3.0002 45L41.9998 45C42.414 45 42.7498 44.6642 42.7498 44.25L42.7498 15.0001L44.2498 15.0001C44.5849 15.0001 44.8794 14.7779 44.9712 14.4555C45.0631 14.1332 44.9299 13.7891 44.645 13.6126ZM22.5 1.63285L41.6196 13.5001L3.38044 13.5001L22.5 1.63285ZM39.7498 43.5L41.2498 43.5L41.2498 15.0001L3.75019 15.0001L3.75019 43.5L5.25017 43.5L5.25017 21.0001C5.25017 20.5858 5.58596 20.2501 6.00017 20.2501L38.9998 20.2501C39.414 20.2501 39.7498 20.5858 39.7498 21.0001L39.7498 43.5ZM36.7499 43.5L38.2498 43.5L38.2498 21.7501L6.75016 21.7501L6.75016 43.5L8.25014 43.5L8.25014 35.25C8.25014 34.8358 8.58593 34.5 9.00014 34.5L12.7501 34.5L12.7501 26.25C12.7501 25.8358 13.0859 25.5 13.5001 25.5L31.4999 25.5C31.9141 25.5 32.2499 25.8358 32.2499 26.25L32.2499 34.5L35.9999 34.5C36.4141 34.5 36.7499 34.8358 36.7499 35.25L36.7499 43.5ZM14.2501 27L14.2501 34.5L21.75 34.5L21.75 27L14.2501 27ZM23.25 34.5L23.25 27L30.7499 27L30.7499 34.5L23.25 34.5ZM17.2501 36L17.2501 43.5L9.75013 43.5L9.75013 36L17.2501 36ZM26.25 43.5L26.25 36L18.75 36L18.75 43.5L26.25 43.5ZM27.7499 43.5L27.7499 36L35.2499 36L35.2499 43.5L27.7499 43.5Z" fill-rule="evenodd"/>
	</g>
	<defs>
		<clipPath id="clip_1">
			<rect x="-544" y="-2670" width="1440" height="5513" clip-rule="evenodd"/>
		</clipPath>
	</defs>
	<g clip-path="url(#clip_1)">
		<path fill="rgb(227,115,81)" stroke="none" transform="translate(20 4)" d="M0 3C0 1.34315 1.34315 0 3 0C3.79565 0 4.55871 0.316071 5.12132 0.87868C5.68393 1.44129 6 2.20435 6 3C6 4.65685 4.65685 6 3 6C1.34315 6 0 4.65685 0 3ZM1.5 3C1.5 3.82843 2.17157 4.5 3 4.5C3.82843 4.5 4.5 3.82843 4.5 3C4.5 2.17157 3.82843 1.5 3 1.5C2.17157 1.5 1.5 2.17157 1.5 3Z" fill-rule="evenodd"/>
	</g>

</svg>