<?xml version="1.0" encoding="utf-8" ?>
<svg xmlns="http://www.w3.org/2000/svg" xmlns:xlink="http://www.w3.org/1999/xlink" width="43" height="43">
	<defs>
		<clipPath id="clip_0">
			<rect x="-839" y="-2672" width="1440" height="5513" clip-rule="evenodd"/>
		</clipPath>
	</defs>
	<g clip-path="url(#clip_0)">
		<path fill="rgb(227,115,81)" stroke="none" d="M27.7656 16.7654C27.4524 17.0782 26.9456 17.0782 26.6328 16.7654L23.2346 13.3672C22.9218 13.0543 22.9218 12.5472 23.2346 12.2346C23.5475 11.9218 24.0546 11.9218 24.3671 12.2346L27.7656 15.6328C28.0781 15.9457 28.0781 16.4528 27.7656 16.7654ZM29.7067 18.2932C30.0978 18.6829 30.0978 19.3167 29.7067 19.7068C29.3165 20.0977 28.6837 20.0977 28.2927 19.7068C27.9024 19.3167 27.9024 18.6829 28.2927 18.2932C28.6837 17.9023 29.3165 17.9023 29.7067 18.2932Z" fill-rule="evenodd"/>
	</g>
	<defs>
		<clipPath id="clip_1">
			<rect x="-839" y="-2672" width="1440" height="5513" clip-rule="evenodd"/>
		</clipPath>
	</defs>
	<g clip-path="url(#clip_1)">
		<path fill="rgb(0,0,0)" stroke="none" d="M42.1602 43L0.839845 43C0.375962 43 0 42.624 0 42.1602L0 0.839852C0 0.499976 0.204712 0.19389 0.518342 0.0639753C0.8323 -0.065939 1.1935 0.0055794 1.43364 0.246052L42.754 41.5663C42.9942 41.8065 43.066 42.1677 42.9361 42.4817C42.8062 42.7956 42.4998 43 42.1602 43ZM8.43519 9.62285L1.67969 2.8673L1.67969 41.3203L40.1325 41.3203L33.3773 34.5651L31.5962 36.3471C31.2682 36.6752 30.736 36.6752 30.4083 36.3471C30.0802 36.0194 30.0802 35.4876 30.408 35.1595L32.1894 33.3775L28.6262 29.8144L26.8452 31.5961C26.5171 31.9241 25.9853 31.9241 25.6573 31.5964C25.3292 31.2683 25.3292 30.7365 25.6573 30.4085L27.4387 28.6264L23.8755 25.0636L22.0938 26.845C21.7658 27.1731 21.2343 27.1731 20.9062 26.845C20.5782 26.517 20.5782 25.9852 20.9062 25.6574L22.6876 23.8757L19.1245 20.3122L17.3428 22.094C17.0147 22.422 16.4833 22.422 16.1552 22.094C15.8271 21.7659 15.8271 21.2341 16.1552 20.9064L17.9366 19.1246L14.3738 15.5615L12.5918 17.3429C12.2637 17.6713 11.7316 17.6706 11.4038 17.3429C11.0761 17.0148 11.0761 16.483 11.4042 16.155L13.1859 14.3739L9.62279 10.8104L7.84074 12.5918C7.51268 12.9202 6.98056 12.9196 6.65315 12.5918C6.32508 12.2638 6.32508 11.732 6.65315 11.4039L8.43519 9.62285Z" fill-rule="evenodd"/>
	</g>
	<defs>
		<clipPath id="clip_2">
			<rect x="-839" y="-2672" width="1440" height="5513" clip-rule="evenodd"/>
		</clipPath>
	</defs>
	<g clip-path="url(#clip_2)">
		<path fill="rgb(0,0,0)" stroke="none" transform="translate(7 17)" d="M0.53059 0.0654135C0.851966 -0.0675715 1.2217 0.00597325 1.46752 0.251794L18.7483 17.5325C18.9938 17.7783 19.0676 18.1484 18.9347 18.4694C18.8013 18.7908 18.488 19 18.1401 19L0.85969 19C0.384845 19 0 18.6151 0 18.1403L0 0.85963C0 0.512055 0.209549 0.198399 0.53059 0.0654135ZM1.71938 2.93534L1.71938 17.2809L16.0648 17.2809L1.71938 2.93534Z" fill-rule="evenodd"/>
	</g>
	<defs>
		<clipPath id="clip_3">
			<rect x="-839" y="-2672" width="1440" height="5513" clip-rule="evenodd"/>
		</clipPath>
	</defs>
	<g clip-path="url(#clip_3)">
		<path fill="rgb(0,0,0)" stroke="none" transform="translate(10 0)" d="M2.63125 8.59274L26.2987 32.2585C27.2868 33.2472 28.8874 33.2472 29.8762 32.2585L32.2607 29.8744C33.2464 28.8887 33.2464 27.2839 32.2607 26.2969L8.59357 2.6311C8.50102 2.53856 8.38805 2.46874 8.26388 2.42757L1.10963 0.0431798C0.806956 -0.0575971 0.472661 0.0211143 0.247053 0.247039C0.0211155 0.472634 -0.0576003 0.806581 0.0431822 1.10957L2.42771 8.26341C2.46921 8.38757 2.5387 8.5002 2.63125 8.59274ZM3.8749 7.27243L7.27318 3.87467L2.17608 2.17596L3.8749 7.27243ZM8.55536 4.97762L25.664 22.0853L22.0869 25.6626L4.97791 8.55454L8.55536 4.97762ZM24.4714 28.0473L28.0489 24.47L26.8566 23.2782L23.2792 26.8548L24.4714 28.0473ZM31.0678 27.4891C31.3968 27.8181 31.3968 28.3536 31.0681 28.6819L28.6839 31.0663C28.3545 31.3956 27.8206 31.396 27.491 31.0663L25.664 29.2395L29.2412 25.6622L31.0678 27.4891Z" fill-rule="evenodd"/>
	</g>

</svg>