<?xml version="1.0" encoding="utf-8" ?>
<svg xmlns="http://www.w3.org/2000/svg" xmlns:xlink="http://www.w3.org/1999/xlink" width="36" height="50">
	<defs>
		<clipPath id="clip_0">
			<rect x="-1134" y="-2667" width="1440" height="5513" clip-rule="evenodd"/>
		</clipPath>
	</defs>
	<g clip-path="url(#clip_0)">
		<path fill="rgb(227,115,81)" stroke="none" d="M34.7979 26.0705C34.5432 26.0705 34.2886 25.9904 34.0708 25.824L30.8645 23.3853L30.8645 41.3205L33.8193 41.3205C34.4824 41.3205 35.0205 41.8565 35.0205 42.5206L35.0205 48.7998C35.0205 49.4623 34.4824 50 33.8193 50C33.1563 50 32.6182 49.4623 32.6182 48.7998L32.6182 43.7208L24.0549 43.7208C23.3902 43.7208 22.8537 43.1831 22.8537 42.5206L22.8537 35.2093L12.8346 35.2093C12.1716 35.2093 11.6335 34.6716 11.6335 34.0091L11.6335 26.5201L1.20114 26.5201C0.53651 26.5201 0 25.9824 0 25.32C0 24.6575 0.53651 24.1198 1.20114 24.1198L6.43972 24.1198L6.43972 5.00209C6.43972 4.93808 6.46694 4.88208 6.47655 4.81967L2.97403 2.15372C2.44712 1.75207 2.34463 0.999967 2.74661 0.471898C3.14859 -0.0545715 3.90451 -0.155385 4.43141 0.244668L35.5266 23.915C36.0551 24.3166 36.1559 25.0703 35.754 25.5968C35.5185 25.9072 35.1598 26.0705 34.7979 26.0705ZM12.8346 24.1198L8.842 24.1198L8.842 6.6199L17.8794 13.4992C17.8778 13.52 17.8666 13.5392 17.8666 13.56L17.8666 32.8089L14.0357 32.8089L14.0357 25.32C14.0357 24.6575 13.4976 24.1198 12.8346 24.1198ZM28.4622 22.1195L28.4622 41.3205L25.256 41.3205L25.256 34.0091C25.256 33.3466 24.7179 32.8089 24.0549 32.8089L20.2689 32.8089L20.2689 15.3186L28.5679 21.6363C28.5023 21.7851 28.4622 21.9467 28.4622 22.1195Z" fill-rule="evenodd"/>
	</g>

</svg>