<?xml version="1.0" encoding="utf-8" ?>
<svg xmlns="http://www.w3.org/2000/svg" xmlns:xlink="http://www.w3.org/1999/xlink" width="39" height="45">
	<defs>
		<clipPath id="clip_0">
			<rect x="-255" y="-2927" width="1440" height="5513" clip-rule="evenodd"/>
		</clipPath>
	</defs>
	<g clip-path="url(#clip_0)">
		<path fill="rgb(227,115,81)" stroke="none" d="M19.9893 0.131506C25.6711 3.43249 32.0002 6.07404 38.2922 7.7705C38.7103 7.88309 39 8.25697 39 8.68342L39 18.3555C39 28.3156 34.3308 34.9084 30.4135 38.6851C26.1962 42.7513 21.2837 45 19.5003 45C17.7167 45 12.8041 42.7513 8.58685 38.6851C4.6695 34.9083 0 28.3155 0 18.3555L0 8.68351C0 8.25697 0.28975 7.88309 0.707762 7.7705C7.17847 6.02596 13.1655 3.52733 19.0112 0.131506C19.313 -0.0438353 19.6875 -0.0438353 19.9893 0.131506ZM29.0669 37.3327C32.7208 33.8099 37.0761 27.658 37.0761 18.3554L37.0761 9.40166C31.0361 7.70784 24.9859 5.17519 19.5004 2.04347C13.8745 5.26053 8.11185 7.67321 1.92402 9.40201L1.92402 18.3554C1.92402 27.658 6.27947 33.8098 9.93324 37.3327C14.0805 41.3313 18.5148 43.1067 19.5003 43.1067C20.4857 43.1067 24.9198 41.3313 29.0669 37.3327Z" fill-rule="evenodd"/>
	</g>
	<defs>
		<clipPath id="clip_1">
			<rect x="-255" y="-2927" width="1440" height="5513" clip-rule="evenodd"/>
		</clipPath>
	</defs>
	<g clip-path="url(#clip_1)">
		<path fill="rgb(227,115,81)" stroke="none" transform="translate(4 9)" d="M6.93491 0.567936C6.74643 0.107404 6.20581 -0.118827 5.72717 0.06264C4.06371 0.693407 2.35634 1.274 0.652501 1.78837C0.264217 1.90569 0 2.25181 0 2.64337L0 6.1039C0 6.59879 0.416989 7 0.931156 7C1.44532 7 1.86231 6.59879 1.86231 6.1039L1.86231 3.29827C3.39081 2.82234 4.91766 2.29591 6.40985 1.73004C6.8884 1.54874 7.12348 1.02847 6.93491 0.567936Z"/>
	</g>
	<defs>
		<clipPath id="clip_2">
			<rect x="-255" y="-2927" width="1440" height="5513" clip-rule="evenodd"/>
		</clipPath>
	</defs>
	<g clip-path="url(#clip_2)">
		<path fill="rgb(227,115,81)" stroke="none" transform="translate(12 8)" d="M0.993076 2C1.12601 2 1.26097 1.97306 1.39041 1.91623L1.40863 1.90827C1.90992 1.68723 2.13568 1.10011 1.91599 0.595926C1.69612 0.0915559 1.10927 -0.13661 0.608527 0.0842435L0.592519 0.0911856C0.0909498 0.311576 -0.135548 0.898234 0.083498 1.4027C0.246057 1.7772 0.610827 2 0.993076 2Z"/>
	</g>
	<defs>
		<clipPath id="clip_3">
			<rect x="-255" y="-2927" width="1440" height="5513" clip-rule="evenodd"/>
		</clipPath>
	</defs>
	<g clip-path="url(#clip_3)">
		<path fill="rgb(227,115,81)" stroke="none" transform="translate(24 32)" d="M6.60214 0.135947C6.19643 -0.116057 5.65239 -0.007679 5.38689 0.378034C4.66343 1.43036 3.81468 2.43806 2.86386 3.37287C2.08196 4.14151 1.23467 4.85793 0.345571 5.50208C-0.0399209 5.78143 -0.114101 6.30496 0.179766 6.67146C0.352663 6.88674 0.614087 7 0.878527 7C1.06422 7 1.2513 6.9443 1.41026 6.82903C2.3693 6.13406 3.28311 5.36147 4.12615 4.53272C5.15416 3.52223 6.07285 2.43148 6.85688 1.29076C7.12221 0.904972 7.00801 0.38795 6.60214 0.135947Z"/>
	</g>
	<defs>
		<clipPath id="clip_4">
			<rect x="-255" y="-2927" width="1440" height="5513" clip-rule="evenodd"/>
		</clipPath>
	</defs>
	<g clip-path="url(#clip_4)">
		<path fill="rgb(227,115,81)" stroke="none" transform="translate(22 38)" d="M0.539833 0.134683L0.48418 0.167875C0.0206693 0.439703 -0.137737 1.04044 0.130626 1.50978C0.310465 1.82437 0.636012 2 0.970924 2C1.13572 2 1.30305 1.95742 1.45587 1.8676L1.52008 1.82939C1.98233 1.55528 2.13758 0.953723 1.86688 0.485661C1.59599 0.0177814 1.00181 -0.139151 0.539833 0.134683Z"/>
	</g>
	<defs>
		<clipPath id="clip_5">
			<rect x="-255" y="-2927" width="1440" height="5513" clip-rule="evenodd"/>
		</clipPath>
	</defs>
	<g clip-path="url(#clip_5)">
		<path fill="rgb(227,115,81)" stroke="none" transform="translate(8 14)" d="M3.15409 6.13905C3.99691 6.13905 4.78935 6.46213 5.3852 7.04918L8.88395 10.4956L18.6145 0.910127C19.2106 0.323169 20.003 0 20.8459 0C21.6889 0 22.4814 0.32308 23.0773 0.910127C24.3075 2.12177 24.3075 4.09371 23.0775 5.30606L11.1154 17.0898C10.5194 17.6768 9.72695 18 8.88404 18C8.04114 18 7.24869 17.6768 6.65276 17.09L0.922623 11.4455C-0.307541 10.2335 -0.307541 8.26126 0.922623 7.04918C1.51874 6.46222 2.31128 6.13905 3.15409 6.13905ZM20.846 1.91185C20.5215 1.91185 20.2163 2.0362 19.987 2.26209L9.56999 12.5236C9.38808 12.7029 9.14138 12.8036 8.88396 12.8036C8.62653 12.8036 8.37983 12.7028 8.19774 12.5236L4.01294 8.40115C3.78363 8.17526 3.47864 8.05091 3.154 8.05091C2.82936 8.05091 2.52419 8.17544 2.29479 8.40133C1.8213 8.86775 1.8213 9.62699 2.29497 10.0936L8.02492 15.7379C8.25432 15.9638 8.5595 16.0881 8.88404 16.0881C9.20859 16.0881 9.51377 15.9638 9.74308 15.7379L21.7049 3.95436C22.1786 3.48776 22.1786 2.72852 21.7051 2.26209C21.4756 2.0362 21.1707 1.91185 20.846 1.91185Z" fill-rule="evenodd"/>
	</g>

</svg>