<?xml version="1.0" encoding="utf-8" ?>
<svg xmlns="http://www.w3.org/2000/svg" xmlns:xlink="http://www.w3.org/1999/xlink" width="47" height="47">
	<defs>
		<clipPath id="clip_0">
			<rect x="-542" y="-2926" width="1440" height="5513" clip-rule="evenodd"/>
		</clipPath>
	</defs>
	<g clip-path="url(#clip_0)">
		<path fill="rgb(0,0,0)" stroke="none" d="M0 23.5C0 10.5215 10.5215 0 23.5 0C36.4724 0.0145346 46.9855 10.5276 47 23.5C47 36.4785 36.4785 47 23.5 47C10.5215 47 0 36.4785 0 23.5ZM1.56667 23.5C1.56667 35.6134 11.3866 45.4333 23.5 45.4333C35.6076 45.4196 45.4196 35.6076 45.4333 23.5C45.4333 11.3866 35.6134 1.56667 23.5 1.56667C11.3866 1.56667 1.56667 11.3866 1.56667 23.5Z" fill-rule="evenodd"/>
	</g>
	<defs>
		<clipPath id="clip_1">
			<rect x="-542" y="-2926" width="1440" height="5513" clip-rule="evenodd"/>
		</clipPath>
	</defs>
	<g clip-path="url(#clip_1)">
		<path fill="rgb(0,0,0)" stroke="none" transform="translate(4.70001 4.69995)" d="M0 18.8C0 8.41701 8.41701 0 18.8 0C29.178 0.0122396 37.5878 8.42198 37.6 18.8C37.6 29.183 29.183 37.6 18.8 37.6C8.41701 37.6 0 29.183 0 18.8ZM19.5833 33.6833L19.5833 36.0138C28.48 35.5984 35.5984 28.48 36.0138 19.5833L33.6833 19.5833C33.2507 19.5833 32.9 19.2326 32.9 18.8C32.9 18.3674 33.2507 18.0167 33.6833 18.0167L36.0138 18.0167C35.5984 9.12002 28.48 2.00155 19.5833 1.58617L19.5833 3.91667C19.5833 4.34926 19.2326 4.7 18.8 4.7C18.3674 4.7 18.0167 4.34926 18.0167 3.91667L18.0167 1.58617C9.12002 2.00155 2.00155 9.12002 1.58617 18.0167L3.91667 18.0167C4.34926 18.0167 4.7 18.3674 4.7 18.8C4.7 19.2326 4.34926 19.5833 3.91667 19.5833L1.58617 19.5833C2.00155 28.48 9.12002 35.5984 18.0167 36.0138L18.0167 33.6833C18.0167 33.2507 18.3674 32.9 18.8 32.9C19.2326 32.9 19.5833 33.2507 19.5833 33.6833Z" fill-rule="evenodd"/>
	</g>
	<defs>
		<clipPath id="clip_2">
			<rect x="-542" y="-2926" width="1440" height="5513" clip-rule="evenodd"/>
		</clipPath>
	</defs>
	<g clip-path="url(#clip_2)">
		<path fill="rgb(0,0,0)" stroke="none" transform="translate(12.543 12.5415)" d="M13.1628 10.1752L21.1404 10.1752C21.573 10.1752 21.9237 10.526 21.9237 10.9586C21.9237 11.3912 21.573 11.7419 21.1404 11.7419L13.1628 11.7419C12.783 12.8201 11.6811 13.4673 10.5543 13.2738C9.42747 13.0798 8.60474 12.1018 8.60704 10.9586C8.60857 10.6086 8.68966 10.2632 8.84342 9.9488L8.83653 9.94421L0.219864 1.32755C-0.0769458 1.02003 -0.0727385 0.531591 0.229426 0.229426C0.531591 -0.0727385 1.02003 -0.0769458 1.32755 0.219864L9.94421 8.83653L9.9488 8.84342C10.2628 8.69004 10.6074 8.60972 10.957 8.60857C11.9492 8.61278 12.832 9.23967 13.1628 10.1752ZM10.1737 10.9586C10.1737 11.3912 10.5244 11.7419 10.957 11.7419C11.3896 11.7419 11.7404 11.3912 11.7404 10.9586C11.7404 10.526 11.3896 10.1752 10.957 10.1752C10.5244 10.1752 10.1737 10.526 10.1737 10.9586Z" fill-rule="evenodd"/>
	</g>

</svg>