<?xml version="1.0" encoding="utf-8" ?>
<svg xmlns="http://www.w3.org/2000/svg" xmlns:xlink="http://www.w3.org/1999/xlink" width="55" height="41">
	<defs>
		<clipPath id="clip_0">
			<rect x="-833" y="-2934" width="1440" height="5513" clip-rule="evenodd"/>
		</clipPath>
	</defs>
	<g clip-path="url(#clip_0)">
		<path fill="rgb(227,115,81)" stroke="none" d="M44.0756 0.599253L54.7425 11.326C54.9072 11.4917 55 11.7161 55 11.9504C55 12.1847 54.9075 12.4094 54.7428 12.575L49.4094 17.9383C49.2378 18.1108 49.0129 18.197 48.7881 18.197C48.5633 18.197 48.3385 18.1108 48.1669 17.9383L47.7062 17.475L45.0853 20.1106C44.7306 20.4674 44.4988 20.9045 44.4147 21.3752C43.9127 24.186 42.5857 26.7399 40.5771 28.7608L39.8724 29.4694C40.2259 29.9682 40.4173 30.5631 40.4173 31.188C40.4173 31.9812 40.1102 32.7269 39.5526 33.2876C39.1378 33.7053 38.6209 33.983 38.0583 34.0979C38.1128 34.3253 38.1414 34.5605 38.1414 34.8003C38.1414 35.594 37.8343 36.34 37.2766 36.9008C36.7004 37.4795 35.9439 37.7688 35.1877 37.7688C34.5773 37.7688 33.9673 37.5801 33.452 37.2032C33.3063 37.5994 33.0765 37.9626 32.7705 38.2703C32.1948 38.8492 31.4387 39.1387 30.6826 39.1387C29.9264 39.1387 29.1703 38.8492 28.5946 38.2703L28.5047 38.1799C28.3584 38.5613 28.1337 38.9115 27.8375 39.2092C27.2811 39.7706 26.539 40.0801 25.7491 40.0801C25.4167 40.0801 25.0877 40.0221 24.7767 39.9131C24.7304 39.966 24.6831 40.0183 24.6328 40.0688C24.0355 40.6692 23.2417 41 22.3972 41C21.5527 41 20.7587 40.6695 20.1616 40.0688C19.5278 39.4314 19.2207 38.5885 19.2387 37.7514C19.2152 37.752 19.1918 37.7532 19.1683 37.7532C18.3238 37.7532 17.5299 37.4225 16.9327 36.822C16.2764 36.1618 15.9696 35.2813 16.0123 34.4151C15.9596 34.4178 15.9071 34.4192 15.8543 34.4192C15.0446 34.4192 14.2351 34.1094 13.6188 33.4895C13.0217 32.889 12.6928 32.0907 12.6928 31.2415C12.6928 30.4205 13.0009 29.6477 13.561 29.0546L13.2693 28.7613C11.2837 26.7635 9.96246 24.2413 9.44834 21.467C9.34919 20.932 9.0902 20.4414 8.6995 20.0485L7.15113 18.4915L6.83306 18.8114C6.66816 18.9771 6.44494 19.0701 6.21184 19.0701C5.97873 19.0701 5.7554 18.9771 5.59062 18.8114L0.257248 13.4481C-0.0857492 13.1032 -0.0857492 12.5439 0.257248 12.1989L12.131 0.258767C12.4741 -0.0862558 13.0301 -0.0862558 13.3733 0.258767L18.7068 5.62207C18.8715 5.78767 18.964 6.01236 18.964 6.24666C18.964 6.48096 18.8715 6.70564 18.7068 6.87124L18.4453 7.13417L20.6407 9.34192C21.3934 10.0986 22.5047 10.3334 23.5414 9.95463C24.1907 9.7173 24.8712 9.59707 25.564 9.59707C26.0431 9.59707 26.5175 9.65573 26.9797 9.77023C28.0881 9.15991 29.3356 8.83768 30.6121 8.83768C31.6872 8.83768 32.7703 9.07263 33.7446 9.51735C34.7838 9.99168 36.0154 9.77391 36.8091 8.97605L38.0318 7.74676L37.4997 7.21173C37.3351 7.04613 37.2426 6.82144 37.2426 6.58714C37.2426 6.35284 37.3351 6.12816 37.4997 5.96256L42.8332 0.599253C43.1764 0.25423 43.7326 0.25423 44.0756 0.599253ZM2.12058 12.8236L6.21184 16.9377L16.8433 6.24687L12.752 2.13274L2.12058 12.8236ZM39.3631 6.58736L48.7878 16.0648L52.8792 11.9507L43.4544 2.47322L39.3631 6.58736ZM37.4644 32.3914C37.7837 32.3914 38.0839 32.2662 38.3097 32.0389C38.5359 31.8115 38.6602 31.5095 38.6602 31.1877C38.6602 30.8664 38.5359 30.5644 38.31 30.3373L28.0103 19.9801C28.0021 19.9721 27.9938 19.9641 27.9853 19.9557L27.9848 19.9551L27.9842 19.9547L27.9547 19.925L27.924 19.8941L27.9234 19.8935L27.1841 19.1495L24.4523 21.8965C23.7654 22.5869 22.8631 22.9323 21.961 22.9323C21.0587 22.9324 20.1568 22.5872 19.4699 21.8965C18.8045 21.2274 18.438 20.3377 18.438 19.3914C18.438 18.4451 18.8045 17.5554 19.47 16.8863L24.909 11.4168C24.6481 11.4583 24.3906 11.5236 24.1416 11.6147C23.6282 11.8023 23.0953 11.8935 22.5683 11.8935C21.3915 11.8935 20.2425 11.4394 19.3986 10.5908L17.2031 8.38301L8.39346 17.2419L9.94194 18.7991C10.5844 19.4452 11.011 20.2558 11.1755 21.143C11.6244 23.5654 12.7779 25.7678 14.5117 27.512L15.1416 28.1455C16.1685 27.9081 17.2911 28.1902 18.0896 28.9931C18.7457 29.6529 19.0525 30.5326 19.0103 31.3983C19.0627 31.3957 19.1152 31.3944 19.1681 31.3944C20.0126 31.3944 20.8064 31.7252 21.4037 32.3256C22.0376 32.963 22.3446 33.8059 22.3266 34.643C22.3501 34.6425 22.3735 34.6413 22.397 34.6413C23.2415 34.6413 24.0354 34.972 24.6326 35.5724C25.368 36.3121 25.6644 37.3282 25.5223 38.291C25.5962 38.3051 25.6717 38.3131 25.7489 38.3131C26.0687 38.3131 26.3688 38.1879 26.5943 37.9606C26.8211 37.7325 26.9455 37.4305 26.9455 37.1094C26.9455 36.7884 26.8213 36.4869 26.5956 36.2604C26.5939 36.2589 26.5926 36.2571 26.591 36.2554L20.851 30.4833C20.5079 30.1384 20.5079 29.579 20.851 29.2341C21.1941 28.8891 21.7501 28.8891 22.0934 29.2341L29.8368 37.021C30.3033 37.4899 31.062 37.4899 31.528 37.021C31.7538 36.7939 31.8783 36.4919 31.8783 36.1707C31.8783 35.8548 31.7581 35.5571 31.5398 35.3321L24.3984 28.1509C24.0553 27.806 24.0553 27.2466 24.3984 26.9017C24.7415 26.5568 25.2975 26.5568 25.6407 26.9017L32.7592 34.06C32.7619 34.0626 32.7648 34.0649 32.7674 34.0675C32.7763 34.0763 32.7847 34.0854 32.7933 34.0944L34.3419 35.6516C34.8081 36.1205 35.5674 36.1204 36.0344 35.6513C36.2599 35.4245 36.3843 35.1222 36.3843 34.8003C36.3843 34.479 36.26 34.177 36.0341 33.9499L26.8548 24.7203C26.5118 24.3754 26.5117 23.816 26.8546 23.4711C27.1976 23.1261 27.7536 23.126 28.0969 23.4709L36.6187 32.0384C36.8449 32.2662 37.1451 32.3914 37.4644 32.3914ZM43.8427 18.8615C43.2332 19.4745 42.8329 20.2359 42.6853 21.0631C42.247 23.5174 41.0883 25.7474 39.3345 27.5118L38.6595 28.1907L33.1024 22.6026C33.2232 22.6116 33.3445 22.6175 33.4666 22.6175C34.0293 22.6175 34.6051 22.5184 35.1783 22.2826C35.6273 22.0978 35.8423 21.582 35.6587 21.1306C35.475 20.6792 34.9625 20.4628 34.5131 20.6475C32.2523 21.5777 29.5419 19.0142 29.2401 18.7188C29.2351 18.7138 29.23 18.709 29.2249 18.7042L29.1937 18.6729L29.1934 18.6727L29.1662 18.6454L29.1657 18.645L28.4262 17.9009L29.2647 17.0575C29.6079 16.7125 29.6079 16.1533 29.2648 15.8082C28.9217 15.4634 28.3656 15.4633 28.0226 15.8082L26.5649 17.2741L26.5632 17.2757L26.5616 17.2775L23.21 20.6477C22.5212 21.3403 21.4008 21.3401 20.7122 20.6477C20.3787 20.3123 20.195 19.8663 20.195 19.3919C20.195 18.9174 20.3787 18.4714 20.7123 18.136L26.4972 12.3186C26.819 11.9951 27.1768 11.7104 27.5612 11.472C28.4746 10.9043 29.5296 10.6042 30.6121 10.6042C31.4385 10.6042 32.2706 10.7846 33.0187 11.126C34.7204 11.9025 36.7431 11.5407 38.0515 10.2253L39.2742 8.99593L46.4639 16.2257L43.8427 18.8615ZM16.8475 32.2406C16.3 32.7911 15.4089 32.7913 14.861 32.2406C14.5957 31.9737 14.4496 31.619 14.4496 31.2417C14.4496 30.8645 14.5958 30.5097 14.8611 30.2429C15.1349 29.9676 15.4945 29.8299 15.8542 29.8299C16.2139 29.8299 16.5737 29.9676 16.8474 30.2429C17.3951 30.7936 17.3951 31.6898 16.8475 32.2406ZM19.1681 35.9866C19.5435 35.9866 19.8962 35.8398 20.1613 35.5729C20.7091 35.0222 20.7091 34.1259 20.1613 33.5752C19.8876 33.2999 19.5277 33.1621 19.1682 33.1621C18.8083 33.1621 18.4488 33.2999 18.1749 33.5752C17.6272 34.126 17.6272 35.0222 18.1749 35.5729C18.4402 35.8396 18.7929 35.9866 19.1681 35.9866ZM23.3901 38.8197C23.1248 39.0865 22.7722 39.2334 22.397 39.2334C22.0218 39.2334 21.669 39.0864 21.4038 38.8197C20.8561 38.269 20.8561 37.3728 21.4038 36.822C21.6776 36.5467 22.0372 36.4089 22.397 36.4089C22.7566 36.4089 23.1164 36.5467 23.3901 36.822C23.9379 37.3728 23.9379 38.269 23.3901 38.8197Z" fill-rule="evenodd"/>
	</g>
	<defs>
		<clipPath id="clip_1">
			<rect x="-833" y="-2934" width="1440" height="5513" clip-rule="evenodd"/>
		</clipPath>
	</defs>
	<g clip-path="url(#clip_1)">
		<path fill="rgb(227,115,81)" stroke="none" transform="translate(49 12)" d="M0.5 2C0.776142 2 1 1.55228 1 1C1 0.447715 0.776142 0 0.5 0C0.223858 0 0 0.447715 0 1C0 1.55228 0.223858 2 0.5 2Z"/>
	</g>
	<defs>
		<clipPath id="clip_2">
			<rect x="-833" y="-2934" width="1440" height="5513" clip-rule="evenodd"/>
		</clipPath>
	</defs>
	<g clip-path="url(#clip_2)">
		<path fill="rgb(227,115,81)" stroke="none" transform="translate(5 13)" d="M0.5 2C0.776142 2 1 1.55228 1 1C1 0.447715 0.776142 0 0.5 0C0.223858 0 0 0.447715 0 1C0 1.55228 0.223858 2 0.5 2Z"/>
	</g>

</svg>