<?xml version="1.0" encoding="utf-8" ?>
<svg xmlns="http://www.w3.org/2000/svg" xmlns:xlink="http://www.w3.org/1999/xlink" width="33" height="41">
	<defs>
		<clipPath id="clip_0">
			<rect x="-184" y="-3283" width="1440" height="5513" clip-rule="evenodd"/>
		</clipPath>
	</defs>
	<g clip-path="url(#clip_0)">
		<path fill="rgb(227,115,81)" stroke="none" transform="translate(23 2)" d="M5.0472 0C4.65999 0 4.26122 0.0491165 3.8631 0.14546L4.1694 1.3677C6.59732 0.783345 8.71444 2.59499 8.71444 4.85623C8.71444 10.1526 2.56405 14.0561 0 14.791L0.360239 16C3.61716 15.0662 9.99936 10.7055 10 4.85623C10 2.17813 7.77821 0 5.0472 0Z"/>
	</g>
	<defs>
		<clipPath id="clip_1">
			<rect x="-184" y="-3283" width="1440" height="5513" clip-rule="evenodd"/>
		</clipPath>
	</defs>
	<g clip-path="url(#clip_1)">
		<path fill="rgb(227,115,81)" stroke="none" transform="translate(0 2)" d="M1.2838 4.85619C1.2838 2.59494 3.40055 0.780771 5.82943 1.36828L6.13705 0.145403C2.92338 -0.629129 0 1.799 0 4.85619C0 10.7061 6.38366 15.0668 9.63972 16L10 14.791C7.43498 14.0555 1.2838 10.1526 1.2838 4.85619Z"/>
	</g>
	<defs>
		<clipPath id="clip_2">
			<rect x="-184" y="-3283" width="1440" height="5513" clip-rule="evenodd"/>
		</clipPath>
	</defs>
	<g clip-path="url(#clip_2)">
		<path fill="rgb(227,115,81)" stroke="none" transform="translate(13 24)" d="M0.671441 0L5.32856 0C5.69987 0 6 0.308542 6 0.69025L6 3.30975C6 3.5189 5.90801 3.71562 5.75022 3.84676C5.59243 3.97722 5.38563 4.02692 5.18688 3.98412C3.80439 3.67696 2.19628 3.67696 0.813115 3.98412C0.766115 3.99448 0.718442 4 0.671441 4C0.519024 4 0.369964 3.94685 0.249776 3.84676C0.0919875 3.71562 0 3.51752 0 3.30975L0 0.69025C0 0.308542 0.300806 0 0.671441 0ZM1.34288 2.48766C2.41853 2.33374 3.58147 2.33443 4.65712 2.48697L4.65712 1.37981L1.34288 1.37981L1.34288 2.48766Z" fill-rule="evenodd"/>
	</g>
	<defs>
		<clipPath id="clip_3">
			<rect x="-184" y="-3283" width="1440" height="5513" clip-rule="evenodd"/>
		</clipPath>
	</defs>
	<g clip-path="url(#clip_3)">
		<path fill="rgb(227,115,81)" stroke="none" transform="translate(7 37)" d="M0.620818 0L17.3792 0C17.7225 0 18 0.314015 18 0.702494L18 3.29751C18 3.68599 17.7225 4 17.3792 4L0.620818 4C0.278127 4 0 3.68599 0 3.29751L0 0.702494C0 0.314015 0.278127 0 0.620818 0ZM1.24164 2.59501L16.7584 2.59501L16.7584 1.40499L1.24164 1.40499L1.24164 2.59501Z" fill-rule="evenodd"/>
	</g>
	<defs>
		<clipPath id="clip_4">
			<rect x="-184" y="-3283" width="1440" height="5513" clip-rule="evenodd"/>
		</clipPath>
	</defs>
	<g clip-path="url(#clip_4)">
		<path fill="rgb(227,115,81)" stroke="none" transform="translate(8 28)" d="M0.626665 0L15.3733 0C15.7199 0 16 0.27783 16 0.621543L16 9.37846C16 9.72155 15.7193 10 15.3733 10L0.626665 10C0.280746 10 0 9.72217 0 9.37846L0 0.621543C0 0.27783 0.280746 0 0.626665 0ZM1.25333 8.75691L14.7467 8.75691L14.7467 1.24309L1.25333 1.24309L1.25333 8.75691Z" fill-rule="evenodd"/>
	</g>
	<defs>
		<clipPath id="clip_5">
			<rect x="-184" y="-3283" width="1440" height="5513" clip-rule="evenodd"/>
		</clipPath>
	</defs>
	<g clip-path="url(#clip_5)">
		<path fill="rgb(227,115,81)" stroke="none" transform="translate(11 31)" d="M0.627388 0L10.3726 0C10.7196 0 11 0.276301 11 0.618123L11 4.38188C11 4.72308 10.7189 5 10.3726 5L0.627388 5C0.28107 5 0 4.7237 0 4.38188L0 0.618123C0 0.276301 0.28107 0 0.627388 0ZM1.25478 3.76375L9.74522 3.76375L9.74522 1.23625L1.25478 1.23625L1.25478 3.76375Z" fill-rule="evenodd"/>
	</g>
	<defs>
		<clipPath id="clip_6">
			<rect x="-184" y="-3283" width="1440" height="5513" clip-rule="evenodd"/>
		</clipPath>
	</defs>
	<g clip-path="url(#clip_6)">
		<path fill="rgb(227,115,81)" stroke="none" transform="translate(5 0)" d="M21.9288 0C22.2171 0 22.4875 0.112785 22.6907 0.316932C22.8939 0.521079 23.0037 0.790755 22.9999 1.07681C22.9955 1.52291 22.9777 1.96397 22.9593 2.4044C22.9434 2.79568 22.9212 3.17877 22.8958 3.56123C22.5796 8.22574 21.532 12.4901 19.8647 15.8926C19.6183 16.3935 19.3542 16.8831 19.0799 17.3475C17.8075 19.4916 16.3498 21.0303 14.7472 21.92C14.6501 21.9735 14.5434 22 14.4368 22C14.3612 22 14.2857 21.9868 14.2139 21.9603L9.29838 21.9603C9.11171 21.9603 8.94537 21.9603 8.79807 21.9553C8.62283 22.0246 8.42283 22.0126 8.25458 21.9193C6.65141 21.029 5.19427 19.491 3.9219 17.3468C3.64571 16.8818 3.38095 16.3916 3.13587 15.8913C1.46985 12.4908 0.422231 8.227 0.105407 3.5606C0.0793755 3.17814 0.0571534 2.79379 0.0412804 2.40566C0.021598 1.92491 0.00445519 1.50275 1.0765e-05 1.07366C-0.00125907 0.787605 0.109852 0.518559 0.313025 0.315042C0.516199 0.112155 0.786674 0 1.07366 0L21.9288 0ZM21.6285 3.47617C21.6539 3.10442 21.6742 2.73141 21.6907 2.35399C21.7053 1.99043 21.7205 1.62751 21.7269 1.26017L1.27429 1.26017C1.28064 1.60797 1.29524 1.95263 1.30921 2.29729C1.32699 2.73141 1.34858 3.10505 1.37334 3.47617C1.67937 7.9819 2.68381 12.0844 4.27936 15.3406C4.50983 15.8113 4.75808 16.2707 5.01713 16.7073C6.09967 18.5333 7.35807 19.9075 8.66854 20.6995C8.87205 20.6995 9.29902 20.7001 9.29902 20.6995L14.3339 20.6995C15.6437 19.9081 16.9022 18.5333 17.9853 16.7079C18.2431 16.2725 18.4914 15.8119 18.7225 15.3406C20.3186 12.0831 21.3237 7.98064 21.6285 3.47617Z" fill-rule="evenodd"/>
	</g>
	<defs>
		<clipPath id="clip_7">
			<rect x="-184" y="-3283" width="1440" height="5513" clip-rule="evenodd"/>
		</clipPath>
	</defs>
	<g clip-path="url(#clip_7)">
		<path fill="rgb(227,115,81)" stroke="none" transform="translate(18 3)" d="M5.70871 0C5.69837 0.198538 5.68673 0.385695 5.67381 0.570954C5.4043 4.4886 4.49303 8.18115 3.10738 10.9683C2.91349 11.3578 2.7028 11.7435 2.48112 12.1127C1.71526 13.3849 0.856985 14.3725 0 14.9694L0.7497 16C1.75404 15.3007 2.73705 14.1784 3.59533 12.7545C3.83446 12.3555 4.06195 11.9407 4.27006 11.5215C5.72616 8.59087 6.68267 4.73203 6.96381 0.654416C6.97673 0.461569 6.98837 0.269986 7 0.0657578L5.70871 0Z"/>
	</g>
	<defs>
		<clipPath id="clip_8">
			<rect x="-184" y="-3283" width="1440" height="5513" clip-rule="evenodd"/>
		</clipPath>
	</defs>
	<g clip-path="url(#clip_8)">
		<path fill="rgb(227,115,81)" stroke="none" transform="translate(13 21)" d="M1.20723 0L5.76275 0C6.89102 0 7 2.04802 7 2.06873C7 2.08818 6.8721 4 5.79277 4L1.2366 4C0.127902 4 0 2.08818 0 2.06873C0 2.04802 0.108977 0 1.20723 0ZM1.47478 2.7447L5.52456 2.7447C5.6094 2.53946 5.69292 2.19677 5.69488 2.0681C5.69292 1.91684 5.59896 1.49757 5.50499 1.2553L1.49436 1.2553C1.40104 1.49757 1.30642 1.91684 1.30447 2.06936C1.30708 2.19677 1.38995 2.53884 1.47478 2.7447Z" fill-rule="evenodd"/>
	</g>
	<defs>
		<clipPath id="clip_9">
			<rect x="-184" y="-3283" width="1440" height="5513" clip-rule="evenodd"/>
		</clipPath>
	</defs>
	<g clip-path="url(#clip_9)">
		<path fill="rgb(227,115,81)" stroke="none" transform="translate(11 26)" d="M3.2442 0.272335C4.67715 -0.0914983 6.32347 -0.0900574 7.7558 0.272335C9.78718 0.788905 11 1.91282 11 3.27954C11 3.67795 10.7253 4 10.3868 4L0.613155 4C0.274693 4 0 3.67795 0 3.27954C0 1.91354 1.21282 0.788905 3.2442 0.272335ZM3.50295 1.68084C2.65987 1.89553 2.03813 2.22406 1.6592 2.55908L9.3408 2.55908C8.96187 2.22406 8.34013 1.89553 7.49643 1.68084C6.23517 1.36023 4.76667 1.36023 3.50295 1.68084Z" fill-rule="evenodd"/>
	</g>

</svg>