<?xml version="1.0" encoding="utf-8" ?>
<svg xmlns="http://www.w3.org/2000/svg" xmlns:xlink="http://www.w3.org/1999/xlink" width="41" height="41">
	<defs>
		<clipPath id="clip_0">
			<rect x="-559" y="-3283" width="1440" height="5513" clip-rule="evenodd"/>
		</clipPath>
	</defs>
	<g clip-path="url(#clip_0)">
		<path fill="rgb(227,115,81)" stroke="none" transform="translate(4 0)" d="M32.7989 7.74895L29.3617 4.31656C29.1316 4.08651 28.7714 4.04927 28.4989 4.22732L24.6794 6.72747L20.5609 5.01128L19.9291 0.588997C19.8806 0.250907 19.5906 -8.57876e-05 19.2486 2.19957e-08L13.7489 2.19957e-08C13.4069 -8.57876e-05 13.1169 0.250907 13.0684 0.588997L12.4359 5.01128L8.32151 6.72747L4.50134 4.22869C4.22885 4.05064 3.86871 4.08788 3.63858 4.31794L0.201321 7.75032C-0.0293194 7.98072 -0.0660981 8.3412 0.113327 8.61322L2.6569 12.4712L2.23068 13.4549L3.49284 14L4.06687 12.6765C4.15907 12.4638 4.13759 12.2191 4.00981 12.0257L1.56798 8.32559L4.21398 5.68334L7.8726 8.0764C8.06414 8.20022 8.30441 8.22236 8.51537 8.13543L13.3275 6.12337C13.5498 6.02932 13.7063 5.82587 13.74 5.58723L14.345 1.37295L18.6525 1.37295L19.2554 5.58929C19.2891 5.82793 19.4457 6.03138 19.6679 6.12543L24.4801 8.13612C24.6908 8.22304 24.9309 8.2009 25.1222 8.07708L28.7822 5.6854L31.4467 8.34618L29.6593 11.3667C29.553 11.5458 29.5337 11.7635 29.6071 11.9584L30.3695 13.9691L31.6557 13.4831L31.0102 11.7813L32.9041 8.5837C33.0639 8.31409 33.0206 7.97059 32.7989 7.74895Z"/>
	</g>
	<defs>
		<clipPath id="clip_1">
			<rect x="-559" y="-3283" width="1440" height="5513" clip-rule="evenodd"/>
		</clipPath>
	</defs>
	<g clip-path="url(#clip_1)">
		<path fill="rgb(227,115,81)" stroke="none" transform="translate(13 24)" d="M12.7548 0.19924L14.8002 2.23924C14.9281 2.36674 15 2.53963 15 2.72L15 16.32C15 16.6955 14.6947 17 14.3182 17L0.681818 17C0.305284 17 0 16.6955 0 16.32L0 2.72C0 2.53963 0.0719318 2.36674 0.199773 2.23924L2.24523 0.19924C2.37307 0.07174 2.54642 0 2.72727 0L12.2727 0C12.4536 0 12.6269 0.07174 12.7548 0.19924ZM5.17227 1.36L6.53591 2.72L5.45455 3.79848L3.00955 1.36L5.17227 1.36ZM7.5 1.75848L7.89955 1.36L7.10045 1.36L7.5 1.75848ZM11.9905 1.36L9.82773 1.36L8.46409 2.72L9.54545 3.79848L11.9905 1.36ZM1.36364 15.64L4.85795 15.64L6.0975 6.36276L4.9725 5.24076L2.04545 2.32152L1.36364 3.00152L1.36364 15.64ZM10.7864 15.64L13.6364 15.64L13.6364 3.00152L12.9545 2.32152L10.0275 5.24076L8.92227 6.34372L10.7864 15.64ZM8.58136 4.76L7.69977 5.63924C7.57151 5.76649 7.49957 5.93954 7.5 6.12C7.49872 5.94133 7.42696 5.77031 7.30023 5.644L6.41864 4.76L7.5 3.68152L8.58136 4.76ZM6.23386 15.64L7.49386 6.20976C7.49795 6.18112 7.5 6.1523 7.5 6.1234C7.50017 6.16701 7.50469 6.21053 7.51364 6.25328L9.39545 15.64L6.23386 15.64Z" fill-rule="evenodd"/>
	</g>
	<defs>
		<clipPath id="clip_2">
			<rect x="-559" y="-3283" width="1440" height="5513" clip-rule="evenodd"/>
		</clipPath>
	</defs>
	<g clip-path="url(#clip_2)">
		<path fill="rgb(227,115,81)" stroke="none" transform="translate(15 8)" d="M10.3125 0L4.125 0C1.84774 0.002275 0.00223438 1.88134 0 4.2L0 8.4C0.0034375 11.4914 2.46383 13.9965 5.5 14C8.53617 13.9965 10.9966 11.4914 11 8.4L11 0.7C11 0.313425 10.6922 0 10.3125 0ZM4.125 1.4C2.60623 1.4 1.375 2.65361 1.375 4.2L6.875 4.2C8.39377 4.2 9.625 2.94639 9.625 1.4L4.125 1.4ZM9.625 8.4C9.625 10.7196 7.7782 12.6 5.5 12.6C3.2218 12.6 1.375 10.7196 1.375 8.4L1.375 5.6L6.875 5.6C7.89112 5.59974 8.87107 5.21561 9.625 4.522L9.625 8.4Z" fill-rule="evenodd"/>
	</g>
	<defs>
		<clipPath id="clip_3">
			<rect x="-559" y="-3283" width="1440" height="5513" clip-rule="evenodd"/>
		</clipPath>
	</defs>
	<g clip-path="url(#clip_3)">
		<path fill="rgb(227,115,81)" stroke="none" transform="translate(30 26)" d="M8.73606 0.209286L10.7986 2.35214C10.9275 2.48607 11 2.66768 11 2.85714L11 14.2857C11 14.6802 10.6922 15 10.3125 15L0.6875 15C0.307828 15 0 14.6802 0 14.2857L0 2.85714C0 2.66768 0.0725312 2.48607 0.201438 2.35214L2.26394 0.209286C2.39284 0.0753571 2.56764 0 2.75 0L8.25 0C8.43236 0 8.60716 0.0753571 8.73606 0.209286ZM6.1875 13.5714L9.625 13.5714L9.625 3.15286L8.29812 1.77429L6.65912 3.37786L5.71588 2.33643L6.64469 1.42857L4.40963 1.42857L5.29856 2.35214L4.32644 3.36214L2.75 1.72429L1.375 3.15286L1.375 13.5714L4.8125 13.5714L4.8125 2.85714L6.1875 2.85714L6.1875 13.5714Z" fill-rule="evenodd"/>
	</g>
	<defs>
		<clipPath id="clip_4">
			<rect x="-559" y="-3283" width="1440" height="5513" clip-rule="evenodd"/>
		</clipPath>
	</defs>
	<g clip-path="url(#clip_4)">
		<path fill="rgb(227,115,81)" stroke="none" transform="translate(31 15)" d="M3.34876 0L4.66195 0C6.50455 0.00223438 7.99783 1.54 8 3.4375L8 6.88188C7.99633 9.15552 6.20688 10.9973 3.99901 11L3.98566 11C1.77703 10.9924 -0.00732113 9.14246 2.25868e-05 6.86812L0.0107044 3.42581C0.0206351 1.53347 1.51116 0.00378125 3.34876 0ZM3.32673 1.375C2.23184 1.38737 1.34951 2.30304 1.34593 3.43062L1.34593 3.4375C2.44348 3.42504 3.32681 2.50525 3.32673 1.375ZM6.66478 3.4375C6.66478 2.2984 5.76809 1.375 4.66195 1.375C4.66195 2.5141 5.55863 3.4375 6.66478 3.4375ZM6.66478 6.87981C6.66219 8.39403 5.47143 9.62122 4.00101 9.625C2.52985 9.625 1.33725 8.39687 1.33725 6.88188L1.33725 6.875L1.34392 4.8125C2.38756 4.80605 3.3682 4.2973 3.99434 3.4375C4.62473 4.30306 5.61413 4.8125 6.66478 4.8125L6.66478 6.87981Z" fill-rule="evenodd"/>
	</g>
	<defs>
		<clipPath id="clip_5">
			<rect x="-559" y="-3283" width="1440" height="5513" clip-rule="evenodd"/>
		</clipPath>
	</defs>
	<g clip-path="url(#clip_5)">
		<path fill="rgb(227,115,81)" stroke="none" transform="translate(0 26)" d="M8.73606 0.209286L10.7986 2.35214C10.9275 2.48607 11 2.66768 11 2.85714L11 14.2857C11 14.6802 10.6922 15 10.3125 15L0.6875 15C0.307828 15 0 14.6802 0 14.2857L0 2.85714C0 2.66768 0.0725312 2.48607 0.201438 2.35214L2.26394 0.209286C2.39284 0.0753571 2.56764 0 2.75 0L8.25 0C8.43236 0 8.60716 0.0753571 8.73606 0.209286ZM6.1875 13.5714L9.625 13.5714L9.625 3.15286L8.29812 1.77429L6.65912 3.37786L5.71588 2.33643L6.64469 1.42857L4.40963 1.42857L5.29856 2.35214L4.32644 3.36214L2.75 1.72429L1.375 3.15286L1.375 13.5714L4.8125 13.5714L4.8125 2.85714L6.1875 2.85714L6.1875 13.5714Z" fill-rule="evenodd"/>
	</g>
	<defs>
		<clipPath id="clip_6">
			<rect x="-559" y="-3283" width="1440" height="5513" clip-rule="evenodd"/>
		</clipPath>
	</defs>
	<g clip-path="url(#clip_6)">
		<path fill="rgb(227,115,81)" stroke="none" transform="translate(2 15)" d="M3.34876 0L4.66195 0C6.50455 0.00223438 7.99783 1.54 8 3.4375L8 6.88188C7.99633 9.15552 6.20688 10.9973 3.99901 11L3.98566 11C1.77703 10.9924 -0.00732113 9.14246 2.25868e-05 6.86812L0.0107044 3.42581C0.0206351 1.53347 1.51116 0.00378125 3.34876 0ZM6.54194 2.75C6.26004 1.92887 5.50764 1.37861 4.66195 1.375L3.44957 1.375C3.73146 2.19613 4.48386 2.74639 5.32956 2.75L6.54194 2.75ZM1.9915 1.9305L1.9915 2.05631C1.99234 2.23927 1.92132 2.41484 1.79456 2.54306C1.70777 2.63003 1.5987 2.68967 1.48012 2.71494C1.58935 2.41622 1.76443 2.14775 1.9915 1.9305ZM4.00101 9.625C5.47067 9.62122 6.66111 8.39532 6.66478 6.88188L6.66478 4.125L5.32956 4.125C4.46592 4.12431 3.63641 3.77738 3.01695 3.15769C2.93743 3.28891 2.84413 3.4106 2.73856 3.52069C2.36904 3.9013 1.86858 4.11649 1.34593 4.1195L1.33725 6.875L1.33725 6.88188C1.33725 8.39687 2.52985 9.625 4.00101 9.625Z" fill-rule="evenodd"/>
	</g>

</svg>